<svg xmlns="http://www.w3.org/2000/svg" width="100" height="100.004" viewBox="0 0 100 100.004">
  <g id="グループ化_15" data-name="グループ化 15" transform="translate(-1500 -1484.993)">
    <g id="交差_3" data-name="交差 3" transform="translate(1700 1644.997) rotate(180)" fill="#020202">
      <path d="M 159.8856811523438 158.5176696777344 C 159.8991394042969 158.5120086669922 159.9127807617188 158.5062561035156 159.9262237548828 158.5005645751953 C 161.4369659423828 157.8614349365234 162.8943176269531 157.0704193115234 164.2578430175781 156.1494598388672 C 165.6074981689453 155.2377014160156 166.8771057128906 154.1901397705078 168.0314483642578 153.0357971191406 C 169.1858215332031 151.8813781738281 170.2333679199219 150.6117401123047 171.1450042724609 149.2621307373047 C 172.0662994384766 147.8985290527344 172.8573455810547 146.4411010742188 173.4961242675781 144.9303741455078 C 174.8259887695312 141.7864990234375 175.5003051757812 138.4468841552734 175.5003051757812 135.0043487548828 C 175.5003051757812 131.5616302490234 174.8259887695312 128.2219085693359 173.49609375 125.0779495239258 C 172.8569641113281 123.5666961669922 172.06591796875 122.1092758178711 171.1449890136719 120.7462158203125 C 170.2327270507812 119.3960266113281 169.1851959228516 118.1264114379883 168.0314483642578 116.9726104736328 C 166.8776702880859 115.8188247680664 165.6080474853516 114.7713470458984 164.2578582763672 113.8592681884766 C 162.894775390625 112.9382934570312 161.4373931884766 112.1471633911133 159.92626953125 111.5078506469727 C 158.3486022949219 110.8406295776367 156.7220611572266 110.3385162353516 155.0577239990234 110.0037384033203 C 156.7218322753906 109.6690673828125 158.3485565185547 109.1669235229492 159.9262084960938 108.4996643066406 C 161.4373931884766 107.8603439331055 162.894775390625 107.0692138671875 164.2578887939453 106.1482009887695 C 165.6080932617188 105.2361221313477 166.8777008056641 104.1886367797852 168.0314483642578 103.0348815917969 C 169.1854553222656 101.8808364868164 170.2330017089844 100.6111068725586 171.1450042724609 99.26091766357422 C 172.0662689208984 97.89739990234375 172.8572998046875 96.43998718261719 173.4961242675781 94.92918395996094 C 174.8259887695312 91.7852783203125 175.5003051757812 88.44565582275391 175.5003051757812 85.00314331054688 C 175.5003051757812 81.56062316894531 174.8259887695312 78.22101593017578 173.49609375 75.07704925537109 C 172.8572998046875 73.56632232666016 172.0662689208984 72.10890960693359 171.1449890136719 70.74533081054688 C 170.2333679199219 69.39577484130859 169.1858215332031 68.12612915039062 168.0314483642578 66.97171783447266 C 166.8780517578125 65.81800079345703 165.6084136962891 64.77040100097656 164.2578582763672 63.85807800292969 C 162.894775390625 62.93709182739258 161.4373931884766 62.14595794677734 159.92626953125 61.50666809082031 C 159.9131927490234 61.50113677978516 159.8999633789062 61.49555587768555 159.8868713378906 61.49004745483398 C 159.9169311523438 61.49613952636719 159.9467315673828 61.50221252441406 159.9767761230469 61.50835800170898 C 163.1538696289062 62.15827941894531 166.2798004150391 63.12861251831055 169.2678070068359 64.39240264892578 C 172.2006683349609 65.63297271728516 175.0296020507812 67.16853332519531 177.6760101318359 68.95639801025391 C 180.2973785400391 70.72738647460938 182.7622680664062 72.7611083984375 185.0021820068359 75.00106811523438 C 187.2421112060547 77.24104309082031 189.2757873535156 79.70596313476562 191.0467681884766 82.32738494873047 C 192.8347625732422 84.97422790527344 194.3702850341797 87.80321502685547 195.6107025146484 90.73575592041016 C 196.8738861083984 93.72245025634766 197.8441925048828 96.84844970703125 198.4946441650391 100.0269165039062 C 199.1619415283203 103.2877731323242 199.5003051757812 106.6445083618164 199.5003051757812 110.00390625 C 199.5003051757812 113.3630828857422 199.1619415283203 116.7197189331055 198.4946441650391 119.980583190918 C 197.8442993164062 123.1584777832031 196.8739929199219 126.2844924926758 195.6106719970703 129.2717742919922 C 194.3697204589844 132.2049255371094 192.8341827392578 135.0338287353516 191.0467529296875 137.6798400878906 C 189.2757873535156 140.3012390136719 187.2421112060547 142.7661590576172 185.0021820068359 145.0061340332031 C 182.7625732421875 147.2457885742188 180.2976837158203 149.2796173095703 177.6759796142578 151.0511169433594 C 175.0294799804688 152.8389434814453 172.2005462646484 154.3744049072266 169.2678070068359 155.6148071289062 C 166.2802124023438 156.87841796875 163.1542663574219 157.8488464355469 159.9767913818359 158.4991149902344 C 159.9463653564453 158.5053405761719 159.9161224365234 158.5115051269531 159.8856811523438 158.5176696777344 Z" stroke="none"/>
      <path d="M 163.8289642333984 157.0258178710938 C 165.6115875244141 156.502197265625 167.3652191162109 155.8766326904297 169.0730438232422 155.1543121337891 C 171.9760437011719 153.9264678955078 174.7763366699219 152.4065399169922 177.3960418701172 150.6368408203125 C 179.9913787841797 148.8831481933594 182.4315032958984 146.8697509765625 184.6486206054688 144.652587890625 C 186.8660430908203 142.4351196289062 188.8792877197266 139.9949798583984 190.6324310302734 137.3999481201172 C 192.4017944335938 134.7806854248047 193.9218139648438 131.9803924560547 195.1501770019531 129.0770263671875 C 196.400634765625 126.1201171875 197.3610687255859 123.0259094238281 198.0047912597656 119.8803329467773 C 198.6653747558594 116.6523971557617 199.0003051757812 113.3294830322266 199.0003051757812 110.00390625 C 199.0003051757812 106.678108215332 198.6653747558594 103.355094909668 198.0047912597656 100.1271743774414 C 197.3609619140625 96.98102569580078 196.4005126953125 93.88682556152344 195.1501922607422 90.93053436279297 C 193.92236328125 88.02771759033203 192.4023742675781 85.22735595703125 190.6324462890625 82.60727691650391 C 188.8792877197266 80.01222991943359 186.8660430908203 77.57208251953125 184.6486358642578 75.35462951660156 C 182.4312133789062 73.13716125488281 179.9911041259766 71.12387847900391 177.3961181640625 69.37071990966797 C 174.7764434814453 67.60090637207031 171.9761505126953 66.08089447021484 169.0730438232422 64.8529052734375 C 167.3649749755859 64.13047027587891 165.6111907958984 63.50486755371094 163.8285980224609 62.9813346862793 C 164.0675506591797 63.13164138793945 164.3040466308594 63.28585052490234 164.5377502441406 63.44374465942383 C 165.9146881103516 64.37390899658203 167.2091369628906 65.44197082519531 168.385009765625 66.61817169189453 C 169.5618896484375 67.79508972167969 170.6298980712891 69.08952331542969 171.5592803955078 70.46541595458984 C 172.4986572265625 71.85574340820312 173.3052520751953 73.34184265136719 173.9565887451172 74.88225555419922 C 175.3126983642578 78.08818817138672 176.0003051757812 81.49334716796875 176.0003051757812 85.00314331054688 C 176.0003051757812 88.51294708251953 175.3126983642578 91.91810607910156 173.9566497802734 95.12391662597656 C 173.3052520751953 96.66446685791016 172.4986572265625 98.15055847167969 171.5593414306641 99.54080200195312 C 170.6295166015625 100.9173431396484 169.5615234375 102.2118759155273 168.3849945068359 103.3884429931641 C 167.2087554931641 104.5646896362305 165.9143524169922 105.6326293945312 164.5378112792969 106.5625076293945 C 163.14794921875 107.5015716552734 161.6619262695312 108.3082504272461 160.1209869384766 108.9601745605469 C 159.1544342041016 109.3689651489258 158.1696319580078 109.717041015625 157.1696014404297 110.0037689208984 C 158.169677734375 110.2905120849609 159.1545562744141 110.6386032104492 160.1210784912109 111.04736328125 C 161.6619415283203 111.6992492675781 163.14794921875 112.5059356689453 164.5377502441406 113.4449310302734 C 165.914306640625 114.3748397827148 167.2087249755859 115.4427719116211 168.385009765625 116.6190643310547 C 169.5612487792969 117.7953567504883 170.6292266845703 119.0897445678711 171.5592803955078 120.4662933349609 C 172.4983062744141 121.8561172485352 173.3048858642578 123.3421859741211 173.9565887451172 124.8831481933594 C 175.3126983642578 128.0890808105469 176.0003051757812 131.4943389892578 176.0003051757812 135.0043487548828 C 176.0003051757812 138.51416015625 175.3126983642578 141.9193267822266 173.9566497802734 145.1250915527344 C 173.3052825927734 146.6656036376953 172.4986877441406 148.1516723632812 171.5593414306641 149.5419921875 C 170.6298980712891 150.9179840087891 169.5618896484375 152.2124176025391 168.3849945068359 153.3893432617188 C 167.2081604003906 154.5661926269531 165.9137573242188 155.6342163085938 164.5376892089844 156.5637817382812 C 164.3040924072266 156.7215728759766 164.0677795410156 156.8756103515625 163.8289642333984 157.0258178710938 M 150.2658081054688 160.00390625 L 150.2658081054688 160.0032958984375 C 153.5466156005859 159.9696960449219 156.7311401367188 159.30908203125 159.7314453125 158.0400543212891 C 161.2128448486328 157.4133453369141 162.6414489746094 156.6378326416016 163.9779663085938 155.735107421875 C 165.3018646240234 154.8407745361328 166.5465698242188 153.8135528564453 167.6778869628906 152.6822357177734 C 168.8091735839844 151.5509185791016 169.8363800048828 150.3061828613281 170.7306823730469 148.9822540283203 C 171.6336975097656 147.6457214355469 172.4091949462891 146.2171020507812 173.0355987548828 144.7356567382812 C 174.3394012451172 141.6533966064453 175.0003051757812 138.3794250488281 175.0003051757812 135.0043487548828 C 175.0003051757812 131.6292724609375 174.3394012451172 128.3549957275391 173.0355987548828 125.2727355957031 C 172.4091949462891 123.7916107177734 171.6336975097656 122.362663269043 170.7306823730469 121.0261306762695 C 169.8363800048828 119.702522277832 168.8091735839844 118.4574966430664 167.6778869628906 117.3261566162109 C 166.5465698242188 116.1948394775391 165.3018646240234 115.1679077148438 163.9779663085938 114.2735824584961 C 162.6414489746094 113.3705749511719 161.2128448486328 112.5950698852539 159.7314453125 111.9683303833008 C 156.6492309570312 110.6648101806641 153.3753204345703 110.00390625 150.0003051757812 110.00390625 L 150.0054016113281 110.0029983520508 C 153.3780212402344 110.0029983520508 156.6501312255859 109.3423767089844 159.7314453125 108.0391616821289 C 161.2128448486328 107.4124374389648 162.6414489746094 106.6369323730469 163.9779663085938 105.7339096069336 C 165.3018646240234 104.8395843505859 166.5465698242188 103.8126678466797 167.6778869628906 102.6813354492188 C 168.8091735839844 101.5500106811523 169.8363800048828 100.3050003051758 170.7306823730469 98.98105621337891 C 171.6336975097656 97.64453125 172.4091949462891 96.21589660644531 173.0355987548828 94.73446655273438 C 174.3394012451172 91.65218353271484 175.0003051757812 88.37822723388672 175.0003051757812 85.00314331054688 C 175.0003051757812 81.62808227539062 174.3394012451172 78.35410308837891 173.0355987548828 75.27184295654297 C 172.4091949462891 73.79041290283203 171.6336975097656 72.36177062988281 170.7306823730469 71.02525329589844 C 169.8363800048828 69.70131683349609 168.8091735839844 68.45658874511719 167.6778869628906 67.32526397705078 C 166.5465698242188 66.19364166259766 165.3018646240234 65.16671752929688 163.9779663085938 64.27239990234375 C 162.6414489746094 63.3693733215332 161.2128448486328 62.59386444091797 159.7314453125 61.96714782714844 C 156.7311401367188 60.69841384887695 153.5466156005859 60.03779983520508 150.2658081054688 60.00390625 C 153.5691223144531 60.02070617675781 156.8700256347656 60.36210632324219 160.0770416259766 61.01852035522461 C 163.287353515625 61.67523956298828 166.4451599121094 62.65566635131836 169.4625854492188 63.93189239501953 C 172.4250946044922 65.18501281738281 175.2826080322266 66.73605346679688 177.9559173583984 68.54209136962891 C 180.6034240722656 70.33073425292969 183.0931396484375 72.38488006591797 185.3557434082031 74.64752197265625 C 187.6183471679688 76.91017150878906 189.6724548339844 79.39993286132812 191.4610748291016 82.04747772216797 C 193.2667846679688 84.72054290771484 194.8180847167969 87.57841491699219 196.0711975097656 90.54096984863281 C 197.3473968505859 93.55844116210938 198.3274993896484 96.71630859375 198.9844970703125 99.92668151855469 C 199.6585998535156 103.2207489013672 200.0003051757812 106.6114273071289 200.0003051757812 110.00390625 C 200.0003051757812 113.396369934082 199.6585998535156 116.7867431640625 198.9844970703125 120.0808258056641 C 198.3274993896484 123.2911834716797 197.3473968505859 126.4487609863281 196.0711975097656 129.4665222167969 C 194.8177795410156 132.4290924072266 193.2667846679688 135.2866516113281 191.4610748291016 137.959716796875 C 189.6724548339844 140.6072692871094 187.6183471679688 143.0970306396484 185.3557434082031 145.3596801757812 C 183.0931396484375 147.622314453125 180.6034240722656 149.6764678955078 177.9559173583984 151.4654083251953 C 175.2828979492188 153.2711486816406 172.4253845214844 154.8221893310547 169.4625854492188 156.0753173828125 C 166.4451599121094 157.3515319824219 163.287353515625 158.3319549560547 160.0770416259766 158.9889678955078 C 156.8700256347656 159.6450805664062 153.5691223144531 159.9864959716797 150.2658081054688 160.00390625 Z" stroke="none" fill="#020202"/>
    </g>
    <g id="楕円形_31" data-name="楕円形 31" transform="translate(1575 1584.997) rotate(180)" fill="#020202" stroke="#020202" stroke-width="1">
      <circle cx="25" cy="25" r="25" stroke="none"/>
      <circle cx="25" cy="25" r="24.5" fill="none"/>
    </g>
    <g id="グループ化_14" data-name="グループ化 14" transform="translate(3188.999 3068.991) rotate(180)">
      <g id="交差_4" data-name="交差 4" transform="translate(1789 1643.997) rotate(180)" fill="#fffcfc">
        <path d="M 159.8856811523438 158.5176696777344 C 159.8991394042969 158.5120086669922 159.9127807617188 158.5062561035156 159.9262237548828 158.5005645751953 C 161.4369659423828 157.8614349365234 162.8943176269531 157.0704193115234 164.2578430175781 156.1494598388672 C 165.6074981689453 155.2377014160156 166.8771057128906 154.1901397705078 168.0314483642578 153.0357971191406 C 169.1858215332031 151.8813781738281 170.2333679199219 150.6117401123047 171.1450042724609 149.2621307373047 C 172.0662994384766 147.8985290527344 172.8573455810547 146.4411010742188 173.4961242675781 144.9303741455078 C 174.8259887695312 141.7864990234375 175.5003051757812 138.4468841552734 175.5003051757812 135.0043487548828 C 175.5003051757812 131.5616302490234 174.8259887695312 128.2219085693359 173.49609375 125.0779495239258 C 172.8569641113281 123.5666961669922 172.06591796875 122.1092758178711 171.1449890136719 120.7462158203125 C 170.2327270507812 119.3960266113281 169.1851959228516 118.1264114379883 168.0314483642578 116.9726104736328 C 166.8776702880859 115.8188247680664 165.6080474853516 114.7713470458984 164.2578582763672 113.8592681884766 C 162.894775390625 112.9382934570312 161.4373931884766 112.1471633911133 159.92626953125 111.5078506469727 C 158.3486022949219 110.8406295776367 156.7220611572266 110.3385162353516 155.0577239990234 110.0037384033203 C 156.7218322753906 109.6690673828125 158.3485565185547 109.1669235229492 159.9262084960938 108.4996643066406 C 161.4373931884766 107.8603439331055 162.894775390625 107.0692138671875 164.2578887939453 106.1482009887695 C 165.6080932617188 105.2361221313477 166.8777008056641 104.1886367797852 168.0314483642578 103.0348815917969 C 169.1854553222656 101.8808364868164 170.2330017089844 100.6111068725586 171.1450042724609 99.26091766357422 C 172.0662689208984 97.89739990234375 172.8572998046875 96.43998718261719 173.4961242675781 94.92918395996094 C 174.8259887695312 91.7852783203125 175.5003051757812 88.44565582275391 175.5003051757812 85.00314331054688 C 175.5003051757812 81.56062316894531 174.8259887695312 78.22101593017578 173.49609375 75.07704925537109 C 172.8572998046875 73.56632232666016 172.0662689208984 72.10890960693359 171.1449890136719 70.74533081054688 C 170.2333679199219 69.39577484130859 169.1858215332031 68.12612915039062 168.0314483642578 66.97171783447266 C 166.8780517578125 65.81800079345703 165.6084136962891 64.77040100097656 164.2578582763672 63.85807800292969 C 162.894775390625 62.93709182739258 161.4373931884766 62.14595794677734 159.92626953125 61.50666809082031 C 159.9131927490234 61.50113677978516 159.8999633789062 61.49555587768555 159.8868713378906 61.49004745483398 C 159.9169311523438 61.49613952636719 159.9467315673828 61.50221252441406 159.9767761230469 61.50835800170898 C 163.1538696289062 62.15827941894531 166.2798004150391 63.12861251831055 169.2678070068359 64.39240264892578 C 172.2006683349609 65.63297271728516 175.0296020507812 67.16853332519531 177.6760101318359 68.95639801025391 C 180.2973785400391 70.72738647460938 182.7622680664062 72.7611083984375 185.0021820068359 75.00106811523438 C 187.2421112060547 77.24104309082031 189.2757873535156 79.70596313476562 191.0467681884766 82.32738494873047 C 192.8347625732422 84.97422790527344 194.3702850341797 87.80321502685547 195.6107025146484 90.73575592041016 C 196.8738861083984 93.72245025634766 197.8441925048828 96.84844970703125 198.4946441650391 100.0269165039062 C 199.1619415283203 103.2877731323242 199.5003051757812 106.6445083618164 199.5003051757812 110.00390625 C 199.5003051757812 113.3630828857422 199.1619415283203 116.7197189331055 198.4946441650391 119.980583190918 C 197.8442993164062 123.1584777832031 196.8739929199219 126.2844924926758 195.6106719970703 129.2717742919922 C 194.3697204589844 132.2049255371094 192.8341827392578 135.0338287353516 191.0467529296875 137.6798400878906 C 189.2757873535156 140.3012390136719 187.2421112060547 142.7661590576172 185.0021820068359 145.0061340332031 C 182.7625732421875 147.2457885742188 180.2976837158203 149.2796173095703 177.6759796142578 151.0511169433594 C 175.0294799804688 152.8389434814453 172.2005462646484 154.3744049072266 169.2678070068359 155.6148071289062 C 166.2802124023438 156.87841796875 163.1542663574219 157.8488464355469 159.9767913818359 158.4991149902344 C 159.9463653564453 158.5053405761719 159.9161224365234 158.5115051269531 159.8856811523438 158.5176696777344 Z" stroke="none"/>
        <path d="M 163.8289642333984 157.0258178710938 C 165.6115875244141 156.502197265625 167.3652191162109 155.8766326904297 169.0730438232422 155.1543121337891 C 171.9760437011719 153.9264678955078 174.7763366699219 152.4065399169922 177.3960418701172 150.6368408203125 C 179.9913787841797 148.8831481933594 182.4315032958984 146.8697509765625 184.6486206054688 144.652587890625 C 186.8660430908203 142.4351196289062 188.8792877197266 139.9949798583984 190.6324310302734 137.3999481201172 C 192.4017944335938 134.7806854248047 193.9218139648438 131.9803924560547 195.1501770019531 129.0770263671875 C 196.400634765625 126.1201171875 197.3610687255859 123.0259094238281 198.0047912597656 119.8803329467773 C 198.6653747558594 116.6523971557617 199.0003051757812 113.3294830322266 199.0003051757812 110.00390625 C 199.0003051757812 106.678108215332 198.6653747558594 103.355094909668 198.0047912597656 100.1271743774414 C 197.3609619140625 96.98102569580078 196.4005126953125 93.88682556152344 195.1501922607422 90.93053436279297 C 193.92236328125 88.02771759033203 192.4023742675781 85.22735595703125 190.6324462890625 82.60727691650391 C 188.8792877197266 80.01222991943359 186.8660430908203 77.57208251953125 184.6486358642578 75.35462951660156 C 182.4312133789062 73.13716125488281 179.9911041259766 71.12387847900391 177.3961181640625 69.37071990966797 C 174.7764434814453 67.60090637207031 171.9761505126953 66.08089447021484 169.0730438232422 64.8529052734375 C 167.3649749755859 64.13047027587891 165.6111907958984 63.50486755371094 163.8285980224609 62.9813346862793 C 164.0675506591797 63.13164138793945 164.3040466308594 63.28585052490234 164.5377502441406 63.44374465942383 C 165.9146881103516 64.37390899658203 167.2091369628906 65.44197082519531 168.385009765625 66.61817169189453 C 169.5618896484375 67.79508972167969 170.6298980712891 69.08952331542969 171.5592803955078 70.46541595458984 C 172.4986572265625 71.85574340820312 173.3052520751953 73.34184265136719 173.9565887451172 74.88225555419922 C 175.3126983642578 78.08818817138672 176.0003051757812 81.49334716796875 176.0003051757812 85.00314331054688 C 176.0003051757812 88.51294708251953 175.3126983642578 91.91810607910156 173.9566497802734 95.12391662597656 C 173.3052520751953 96.66446685791016 172.4986572265625 98.15055847167969 171.5593414306641 99.54080200195312 C 170.6295166015625 100.9173431396484 169.5615234375 102.2118759155273 168.3849945068359 103.3884429931641 C 167.2087554931641 104.5646896362305 165.9143524169922 105.6326293945312 164.5378112792969 106.5625076293945 C 163.14794921875 107.5015716552734 161.6619262695312 108.3082504272461 160.1209869384766 108.9601745605469 C 159.1544342041016 109.3689651489258 158.1696319580078 109.717041015625 157.1696014404297 110.0037689208984 C 158.169677734375 110.2905120849609 159.1545562744141 110.6386032104492 160.1210784912109 111.04736328125 C 161.6619415283203 111.6992492675781 163.14794921875 112.5059356689453 164.5377502441406 113.4449310302734 C 165.914306640625 114.3748397827148 167.2087249755859 115.4427719116211 168.385009765625 116.6190643310547 C 169.5612487792969 117.7953567504883 170.6292266845703 119.0897445678711 171.5592803955078 120.4662933349609 C 172.4983062744141 121.8561172485352 173.3048858642578 123.3421859741211 173.9565887451172 124.8831481933594 C 175.3126983642578 128.0890808105469 176.0003051757812 131.4943389892578 176.0003051757812 135.0043487548828 C 176.0003051757812 138.51416015625 175.3126983642578 141.9193267822266 173.9566497802734 145.1250915527344 C 173.3052825927734 146.6656036376953 172.4986877441406 148.1516723632812 171.5593414306641 149.5419921875 C 170.6298980712891 150.9179840087891 169.5618896484375 152.2124176025391 168.3849945068359 153.3893432617188 C 167.2081604003906 154.5661926269531 165.9137573242188 155.6342163085938 164.5376892089844 156.5637817382812 C 164.3040924072266 156.7215728759766 164.0677795410156 156.8756103515625 163.8289642333984 157.0258178710938 M 150.2658081054688 160.00390625 L 150.2658081054688 160.0032958984375 C 153.5466156005859 159.9696960449219 156.7311401367188 159.30908203125 159.7314453125 158.0400543212891 C 161.2128448486328 157.4133453369141 162.6414489746094 156.6378326416016 163.9779663085938 155.735107421875 C 165.3018646240234 154.8407745361328 166.5465698242188 153.8135528564453 167.6778869628906 152.6822357177734 C 168.8091735839844 151.5509185791016 169.8363800048828 150.3061828613281 170.7306823730469 148.9822540283203 C 171.6336975097656 147.6457214355469 172.4091949462891 146.2171020507812 173.0355987548828 144.7356567382812 C 174.3394012451172 141.6533966064453 175.0003051757812 138.3794250488281 175.0003051757812 135.0043487548828 C 175.0003051757812 131.6292724609375 174.3394012451172 128.3549957275391 173.0355987548828 125.2727355957031 C 172.4091949462891 123.7916107177734 171.6336975097656 122.362663269043 170.7306823730469 121.0261306762695 C 169.8363800048828 119.702522277832 168.8091735839844 118.4574966430664 167.6778869628906 117.3261566162109 C 166.5465698242188 116.1948394775391 165.3018646240234 115.1679077148438 163.9779663085938 114.2735824584961 C 162.6414489746094 113.3705749511719 161.2128448486328 112.5950698852539 159.7314453125 111.9683303833008 C 156.6492309570312 110.6648101806641 153.3753204345703 110.00390625 150.0003051757812 110.00390625 L 150.0054016113281 110.0029983520508 C 153.3780212402344 110.0029983520508 156.6501312255859 109.3423767089844 159.7314453125 108.0391616821289 C 161.2128448486328 107.4124374389648 162.6414489746094 106.6369323730469 163.9779663085938 105.7339096069336 C 165.3018646240234 104.8395843505859 166.5465698242188 103.8126678466797 167.6778869628906 102.6813354492188 C 168.8091735839844 101.5500106811523 169.8363800048828 100.3050003051758 170.7306823730469 98.98105621337891 C 171.6336975097656 97.64453125 172.4091949462891 96.21589660644531 173.0355987548828 94.73446655273438 C 174.3394012451172 91.65218353271484 175.0003051757812 88.37822723388672 175.0003051757812 85.00314331054688 C 175.0003051757812 81.62808227539062 174.3394012451172 78.35410308837891 173.0355987548828 75.27184295654297 C 172.4091949462891 73.79041290283203 171.6336975097656 72.36177062988281 170.7306823730469 71.02525329589844 C 169.8363800048828 69.70131683349609 168.8091735839844 68.45658874511719 167.6778869628906 67.32526397705078 C 166.5465698242188 66.19364166259766 165.3018646240234 65.16671752929688 163.9779663085938 64.27239990234375 C 162.6414489746094 63.3693733215332 161.2128448486328 62.59386444091797 159.7314453125 61.96714782714844 C 156.7311401367188 60.69841384887695 153.5466156005859 60.03779983520508 150.2658081054688 60.00390625 C 153.5691223144531 60.02070617675781 156.8700256347656 60.36210632324219 160.0770416259766 61.01852035522461 C 163.287353515625 61.67523956298828 166.4451599121094 62.65566635131836 169.4625854492188 63.93189239501953 C 172.4250946044922 65.18501281738281 175.2826080322266 66.73605346679688 177.9559173583984 68.54209136962891 C 180.6034240722656 70.33073425292969 183.0931396484375 72.38488006591797 185.3557434082031 74.64752197265625 C 187.6183471679688 76.91017150878906 189.6724548339844 79.39993286132812 191.4610748291016 82.04747772216797 C 193.2667846679688 84.72054290771484 194.8180847167969 87.57841491699219 196.0711975097656 90.54096984863281 C 197.3473968505859 93.55844116210938 198.3274993896484 96.71630859375 198.9844970703125 99.92668151855469 C 199.6585998535156 103.2207489013672 200.0003051757812 106.6114273071289 200.0003051757812 110.00390625 C 200.0003051757812 113.396369934082 199.6585998535156 116.7867431640625 198.9844970703125 120.0808258056641 C 198.3274993896484 123.2911834716797 197.3473968505859 126.4487609863281 196.0711975097656 129.4665222167969 C 194.8177795410156 132.4290924072266 193.2667846679688 135.2866516113281 191.4610748291016 137.959716796875 C 189.6724548339844 140.6072692871094 187.6183471679688 143.0970306396484 185.3557434082031 145.3596801757812 C 183.0931396484375 147.622314453125 180.6034240722656 149.6764678955078 177.9559173583984 151.4654083251953 C 175.2828979492188 153.2711486816406 172.4253845214844 154.8221893310547 169.4625854492188 156.0753173828125 C 166.4451599121094 157.3515319824219 163.287353515625 158.3319549560547 160.0770416259766 158.9889678955078 C 156.8700256347656 159.6450805664062 153.5691223144531 159.9864959716797 150.2658081054688 160.00390625 Z" stroke="none" fill="#fffcfc"/>
      </g>
      <g id="楕円形_35" data-name="楕円形 35" transform="translate(1664 1583.997) rotate(180)" fill="#fffcfc" stroke="#fffcfc" stroke-width="1">
        <circle cx="25" cy="25" r="25" stroke="none"/>
        <circle cx="25" cy="25" r="24.5" fill="none"/>
      </g>
    </g>
    <circle id="楕円形_36" data-name="楕円形 36" cx="2.5" cy="2.5" r="2.5" transform="translate(1547 1558)" fill="#fff"/>
    <circle id="楕円形_37" data-name="楕円形 37" cx="2.5" cy="2.5" r="2.5" transform="translate(1547 1508)" fill="#080808"/>
  </g>
</svg>
